<svg width="236" height="58" viewBox="0 0 236 58" fill="none" xmlns="http://www.w3.org/2000/svg">
<path d="M6.11988 28H61.8825C63.0155 28 63.275 29.5872 62.2009 29.9479L36.4711 38.5907C36.0638 38.7275 35.7895 39.1091 35.7895 39.5387V55.7021C35.7895 56.576 34.7474 57.0294 34.1079 56.4338L5.43832 29.7318C4.77378 29.1128 5.21174 28 6.11988 28Z" fill="#17D5FF"/>
<g filter="url(#filter0_d)">
<path d="M61.8801 30H6.11753C4.98445 30 4.72501 28.4128 5.79911 28.0521L31.5289 19.4093C31.9362 19.2725 32.2105 18.8909 32.2105 18.4613V2.29793C32.2105 1.42405 33.2526 0.970557 33.8921 1.56615L62.5617 28.2682C63.2262 28.8872 62.7883 30 61.8801 30Z" fill="#17D5FF"/>
</g>
<path d="M89.5834 44V17.984H98.8954V11.984H73.3594V17.984H82.7194V44H89.5834ZM119.793 44V20.816H113.649V23.792C111.777 21.392 109.233 20.24 106.497 20.24C100.593 20.24 96.2254 24.848 96.2254 32.384C96.2254 40.16 100.689 44.576 106.497 44.576C109.329 44.576 111.825 43.328 113.649 41.024V44H119.793ZM108.417 39.152C104.913 39.152 102.513 36.416 102.513 32.384C102.513 28.4 104.913 25.664 108.417 25.664C110.433 25.664 112.641 26.816 113.649 28.352V36.512C112.641 38.048 110.433 39.152 108.417 39.152ZM131.214 36.56V28.352C132.27 26.816 134.478 25.664 136.494 25.664C139.998 25.664 142.35 28.4 142.35 32.384C142.35 36.416 139.998 39.152 136.494 39.152C134.478 39.152 132.27 38.048 131.214 36.56ZM131.214 44V41.024C133.038 43.328 135.582 44.576 138.366 44.576C144.222 44.576 148.638 40.16 148.638 32.384C148.638 24.848 144.27 20.24 138.366 20.24C135.63 20.24 133.038 21.392 131.214 23.792V11.984H125.118V44H131.214ZM182.523 44L170.187 11.984H161.643L149.307 44H157.035L159.051 38.576H172.779L174.795 44H182.523ZM170.907 32.576H160.923L165.915 18.8L170.907 32.576ZM197.864 44.576C203.816 44.576 208.136 40.112 208.136 32.384C208.136 24.656 203.816 20.24 197.864 20.24C195.032 20.24 192.488 21.488 190.712 23.744V20.816H184.616V52.832H190.712V41.024C192.632 43.424 195.128 44.576 197.864 44.576ZM195.944 39.152C193.976 39.152 191.72 37.952 190.712 36.464V28.304C191.768 26.768 193.976 25.664 195.944 25.664C199.448 25.664 201.848 28.4 201.848 32.384C201.848 36.416 199.448 39.152 195.944 39.152ZM225.128 44.576C231.08 44.576 235.4 40.112 235.4 32.384C235.4 24.656 231.08 20.24 225.128 20.24C222.296 20.24 219.752 21.488 217.976 23.744V20.816H211.88V52.832H217.976V41.024C219.896 43.424 222.392 44.576 225.128 44.576ZM223.208 39.152C221.24 39.152 218.984 37.952 217.976 36.464V28.304C219.032 26.768 221.24 25.664 223.208 25.664C226.712 25.664 229.112 28.4 229.112 32.384C229.112 36.416 226.712 39.152 223.208 39.152Z" fill="black"/>
<defs>
<filter id="filter0_d" x="1.11658" y="1.29593" width="65.7656" height="36.7041" filterUnits="userSpaceOnUse" color-interpolation-filters="sRGB">
<feFlood flood-opacity="0" result="BackgroundImageFix"/>
<feColorMatrix in="SourceAlpha" type="matrix" values="0 0 0 0 0 0 0 0 0 0 0 0 0 0 0 0 0 0 127 0" result="hardAlpha"/>
<feOffset dy="4"/>
<feGaussianBlur stdDeviation="2"/>
<feComposite in2="hardAlpha" operator="out"/>
<feColorMatrix type="matrix" values="0 0 0 0 0 0 0 0 0 0 0 0 0 0 0 0 0 0 0.1 0"/>
<feBlend mode="normal" in2="BackgroundImageFix" result="effect1_dropShadow"/>
<feBlend mode="normal" in="SourceGraphic" in2="effect1_dropShadow" result="shape"/>
</filter>
</defs>
</svg>
